<?xml version="1.0" encoding="utf-8"?>
<!-- Generator: Adobe Illustrator 22.1.0, SVG Export Plug-In . SVG Version: 6.00 Build 0)  -->
<svg version="1.1" id="Layer_1" xmlns="http://www.w3.org/2000/svg" xmlns:xlink="http://www.w3.org/1999/xlink" x="0px" y="0px"
	 viewBox="0 0 323.9 215.5" style="enable-background:new 0 0 323.9 215.5;" xml:space="preserve">
<style type="text/css">
	.st0{fill:none;stroke:#231F20;stroke-miterlimit:10;}
	.st1{fill:none;stroke:url(#SVGID_1_);}
	.st2{fill:none;stroke:url(#SVGID_2_);}
	.st3{fill:none;stroke:url(#SVGID_3_);}
	.st4{fill:none;stroke:url(#SVGID_4_);}
	.st5{fill:none;stroke:url(#SVGID_5_);}
	.st6{fill:none;stroke:url(#SVGID_6_);}
	.st7{fill:none;stroke:url(#SVGID_7_);}
	.st8{fill:none;stroke:url(#SVGID_8_);}
	.st9{fill:none;stroke:url(#SVGID_9_);}
	.st10{fill:none;stroke:url(#SVGID_10_);}
	.st11{fill:none;stroke:url(#SVGID_11_);}
	.st12{fill:none;stroke:url(#SVGID_12_);}
	.st13{fill:none;stroke:url(#SVGID_13_);}
	.st14{fill:none;stroke:url(#SVGID_14_);}
	.st15{fill:none;stroke:url(#SVGID_15_);}
	.st16{fill:none;stroke:url(#SVGID_16_);}
	.st17{fill:none;stroke:url(#SVGID_17_);}
	.st18{fill:none;stroke:url(#SVGID_18_);}
	.st19{fill:none;stroke:url(#SVGID_19_);}
	.st20{fill:none;stroke:url(#SVGID_20_);}
	.st21{fill:none;stroke:url(#SVGID_21_);}
	.st22{fill:none;stroke:url(#SVGID_22_);}
	.st23{fill:none;stroke:url(#SVGID_23_);}
</style>
<g id="Layer_1">
	<g>
		<polygon class="st0" points="298.9,129.9 348.9,129.9 373.9,173.2 348.9,216.5 298.9,216.5 273.9,173.2 		"/>
		<polygon class="st0" points="298.9,43.3 348.9,43.3 373.9,86.6 348.9,129.9 298.9,129.9 273.9,86.6 		"/>
		<polygon class="st0" points="149,129.9 199,129.9 224,173.2 199,216.5 149,216.5 124,173.2 		"/>
		<polyline class="st0" points="73.9,259.8 48.9,216.5 73.9,173.2 123.9,173.2 148.9,216.5 123.9,259.8 		"/>
		<polyline class="st0" points="-1,129.9 49,129.9 74,173.2 49,216.5 -1,216.5 		"/>
		<polyline class="st0" points="273.9,0 298.9,43.3 273.9,86.6 223.9,86.6 		"/>
		<g>
			<polyline class="st0" points="49,129.9 74,86.6 124,86.6 			"/>
			<polyline class="st0" points="124,86.6 74,86.6 49,43.3 			"/>
		</g>
		<g>
			<line class="st0" x1="191.7" y1="136.5" x2="156.2" y2="136.5"/>
			<line class="st0" x1="151.5" y1="207.4" x2="133.8" y2="176.6"/>
		</g>
		<g>
			<line class="st0" x1="341.4" y1="136.5" x2="305.9" y2="136.5"/>
			<line class="st0" x1="301.2" y1="207.4" x2="283.4" y2="176.6"/>
		</g>
	</g>
	<g>
		<linearGradient id="SVGID_1_" gradientUnits="userSpaceOnUse" x1="-1.0223" y1="173.3301" x2="449.5289" y2="173.3301">
			<stop  offset="0.4" style="stop-color:#68BEBC"/>
			<stop  offset="0.6" style="stop-color:#20409A"/>
		</linearGradient>
		<polygon class="st1" points="298.9,129.9 348.9,129.9 373.9,173.2 348.9,216.5 298.9,216.5 273.9,173.2 		"/>
		<linearGradient id="SVGID_2_" gradientUnits="userSpaceOnUse" x1="-1.0223" y1="173.3301" x2="449.5289" y2="173.3301">
			<stop  offset="0.4" style="stop-color:#68BEBC"/>
			<stop  offset="0.6" style="stop-color:#20409A"/>
		</linearGradient>
		<polygon class="st2" points="298.9,43.3 348.9,43.3 373.9,86.6 348.9,129.9 298.9,129.9 273.9,86.6 		"/>
		<linearGradient id="SVGID_3_" gradientUnits="userSpaceOnUse" x1="-1.0223" y1="173.3301" x2="449.5289" y2="173.3301">
			<stop  offset="0.4" style="stop-color:#68BEBC"/>
			<stop  offset="0.6" style="stop-color:#20409A"/>
		</linearGradient>
		<polygon class="st3" points="149,129.9 199,129.9 224,173.2 199,216.5 149,216.5 124,173.2 		"/>
		<linearGradient id="SVGID_4_" gradientUnits="userSpaceOnUse" x1="-1.0223" y1="173.3301" x2="449.5289" y2="173.3301">
			<stop  offset="0.4" style="stop-color:#68BEBC"/>
			<stop  offset="0.6" style="stop-color:#20409A"/>
		</linearGradient>
		<polyline class="st4" points="73.9,259.8 48.9,216.5 73.9,173.2 123.9,173.2 148.9,216.5 123.9,259.8 		"/>
		<linearGradient id="SVGID_5_" gradientUnits="userSpaceOnUse" x1="-1.0223" y1="173.3301" x2="449.5289" y2="173.3301">
			<stop  offset="0.4" style="stop-color:#68BEBC"/>
			<stop  offset="0.6" style="stop-color:#20409A"/>
		</linearGradient>
		<polyline class="st5" points="-1,129.9 49,129.9 74,173.2 49,216.5 -1,216.5 		"/>
		<linearGradient id="SVGID_6_" gradientUnits="userSpaceOnUse" x1="-1.0223" y1="173.3301" x2="449.5289" y2="173.3301">
			<stop  offset="0.4" style="stop-color:#68BEBC"/>
			<stop  offset="0.6" style="stop-color:#20409A"/>
		</linearGradient>
		<polyline class="st6" points="273.9,0 298.9,43.3 273.9,86.6 223.9,86.6 		"/>
		<g>
			<linearGradient id="SVGID_7_" gradientUnits="userSpaceOnUse" x1="-1.0223" y1="173.3301" x2="449.5289" y2="173.3301">
				<stop  offset="0.4" style="stop-color:#68BEBC"/>
				<stop  offset="0.6" style="stop-color:#20409A"/>
			</linearGradient>
			<polyline class="st7" points="49,129.9 74,86.6 124,86.6 			"/>
			<linearGradient id="SVGID_8_" gradientUnits="userSpaceOnUse" x1="-1.0223" y1="173.3301" x2="449.5289" y2="173.3301">
				<stop  offset="0.4" style="stop-color:#68BEBC"/>
				<stop  offset="0.6" style="stop-color:#20409A"/>
			</linearGradient>
			<polyline class="st8" points="124,86.6 74,86.6 49,43.3 			"/>
		</g>
		<g>
			<linearGradient id="SVGID_9_" gradientUnits="userSpaceOnUse" x1="-1.0223" y1="173.3301" x2="449.5289" y2="173.3301">
				<stop  offset="0.4" style="stop-color:#68BEBC"/>
				<stop  offset="0.6" style="stop-color:#20409A"/>
			</linearGradient>
			<line class="st9" x1="191.7" y1="136.5" x2="156.2" y2="136.5"/>
			<linearGradient id="SVGID_10_" gradientUnits="userSpaceOnUse" x1="-1.0223" y1="173.3301" x2="449.5289" y2="173.3301">
				<stop  offset="0.4" style="stop-color:#68BEBC"/>
				<stop  offset="0.6" style="stop-color:#20409A"/>
			</linearGradient>
			<line class="st10" x1="151.5" y1="207.4" x2="133.8" y2="176.6"/>
		</g>
		<g>
			<linearGradient id="SVGID_11_" gradientUnits="userSpaceOnUse" x1="-1.0223" y1="173.3301" x2="449.5289" y2="173.3301">
				<stop  offset="0.4" style="stop-color:#68BEBC"/>
				<stop  offset="0.6" style="stop-color:#20409A"/>
			</linearGradient>
			<line class="st11" x1="341.4" y1="136.5" x2="305.9" y2="136.5"/>
			<linearGradient id="SVGID_12_" gradientUnits="userSpaceOnUse" x1="-1.0223" y1="173.3301" x2="449.5289" y2="173.3301">
				<stop  offset="0.4" style="stop-color:#68BEBC"/>
				<stop  offset="0.6" style="stop-color:#20409A"/>
			</linearGradient>
			<line class="st12" x1="301.2" y1="207.4" x2="283.4" y2="176.6"/>
		</g>
	</g>
</g>
</svg>
